<?xml version="1.0" standalone="no"?>
<!DOCTYPE svg PUBLIC "-//W3C//DTD SVG 20010904//EN"
 "http://www.w3.org/TR/2001/REC-SVG-20010904/DTD/svg10.dtd">
<svg version="1.0" xmlns="http://www.w3.org/2000/svg"
 width="512.000000pt" height="512.000000pt" viewBox="0 0 512.000000 512.000000"
 preserveAspectRatio="xMidYMid meet">
<metadata>
Created by potrace 1.14, written by Peter Selinger 2001-2017
</metadata>
<g transform="translate(0.000000,512.000000) scale(0.100000,-0.100000)"
fill="#000000" stroke="none">
<path d="M2790 4209 c-351 -52 -624 -171 -875 -379 -270 -225 -456 -524 -546
-880 -20 -80 -25 -90 -30 -65 -8 37 -4 277 6 326 l7 37 -118 -29 c-66 -16
-132 -31 -149 -34 -16 -3 -59 -12 -95 -20 -36 -9 -76 -18 -90 -21 -115 -24
-215 -46 -229 -49 -9 -3 -50 -12 -91 -21 -294 -63 -564 -124 -568 -129 -3 -3
2 -5 11 -5 9 0 38 -7 64 -16 238 -80 413 -244 481 -449 29 -86 34 -117 37
-240 l3 -109 129 -1 c70 -1 142 -5 158 -9 86 -20 116 -29 175 -53 36 -15 81
-36 100 -48 19 -11 47 -26 61 -34 38 -19 148 -127 196 -193 124 -167 175 -328
169 -538 -2 -69 -6 -135 -9 -148 -3 -13 -8 -31 -11 -40 -17 -62 -16 -64 11
-22 15 25 37 59 48 75 31 45 146 157 192 188 l42 29 23 -22 c165 -157 446
-300 713 -364 252 -59 538 -58 775 5 223 59 438 163 602 291 21 16 42 27 48
23 6 -4 9 -2 8 3 -2 5 38 50 87 99 113 111 141 145 219 257 117 170 184 315
235 508 72 275 74 526 7 835 -13 59 -82 246 -118 317 l-39 78 23 25 c67 72
163 112 284 120 l82 6 4 71 c7 133 79 239 203 298 33 15 66 28 74 28 23 0 6
10 -25 16 -16 3 -65 14 -109 24 -143 34 -491 110 -500 110 -6 0 -10 -42 -10
-97 0 -67 -6 -114 -18 -150 -21 -60 -78 -129 -133 -160 l-39 -22 -44 105 -43
105 -22 -46 -21 -46 -54 48 c-228 203 -515 342 -826 399 -100 18 -377 26 -465
13z"/>
</g>
</svg>
